<mxfile host="app.diagrams.net" agent="Mozilla/5.0 (Windows NT 10.0; Win64; x64) AppleWebKit/537.36 (KHTML, like Gecko) Chrome/129.0.0.0 Safari/537.36" version="24.7.17">
  <diagram id="C5RBs43oDa-KdzZeNtuy" name="Page-1">
    <mxGraphModel dx="1257" dy="669" grid="1" gridSize="10" guides="1" tooltips="1" connect="1" arrows="1" fold="1" page="1" pageScale="1" pageWidth="827" pageHeight="1169" math="0" shadow="0">
      <root>
        <mxCell id="WIyWlLk6GJQsqaUBKTNV-0" />
        <mxCell id="WIyWlLk6GJQsqaUBKTNV-1" parent="WIyWlLk6GJQsqaUBKTNV-0" />
        <mxCell id="0WxiCr9hGOSVrj1iXzhR-14" value="" style="edgeStyle=orthogonalEdgeStyle;rounded=0;orthogonalLoop=1;jettySize=auto;html=1;" edge="1" parent="WIyWlLk6GJQsqaUBKTNV-1" source="0WxiCr9hGOSVrj1iXzhR-0" target="0WxiCr9hGOSVrj1iXzhR-3">
          <mxGeometry relative="1" as="geometry">
            <Array as="points">
              <mxPoint x="200" y="60" />
              <mxPoint x="200" y="60" />
            </Array>
          </mxGeometry>
        </mxCell>
        <mxCell id="0WxiCr9hGOSVrj1iXzhR-33" value="" style="edgeStyle=orthogonalEdgeStyle;rounded=0;orthogonalLoop=1;jettySize=auto;html=1;" edge="1" parent="WIyWlLk6GJQsqaUBKTNV-1" source="0WxiCr9hGOSVrj1iXzhR-0" target="0WxiCr9hGOSVrj1iXzhR-32">
          <mxGeometry relative="1" as="geometry" />
        </mxCell>
        <mxCell id="0WxiCr9hGOSVrj1iXzhR-0" value="ADMIN&amp;nbsp;&lt;div&gt;REGISTRATION&lt;/div&gt;" style="rounded=0;whiteSpace=wrap;html=1;" vertex="1" parent="WIyWlLk6GJQsqaUBKTNV-1">
          <mxGeometry x="40" y="40" width="120" height="60" as="geometry" />
        </mxCell>
        <mxCell id="0WxiCr9hGOSVrj1iXzhR-15" value="" style="edgeStyle=orthogonalEdgeStyle;rounded=0;orthogonalLoop=1;jettySize=auto;html=1;" edge="1" parent="WIyWlLk6GJQsqaUBKTNV-1" source="0WxiCr9hGOSVrj1iXzhR-1" target="0WxiCr9hGOSVrj1iXzhR-3">
          <mxGeometry relative="1" as="geometry">
            <Array as="points">
              <mxPoint x="230" y="270" />
              <mxPoint x="230" y="270" />
            </Array>
          </mxGeometry>
        </mxCell>
        <mxCell id="0WxiCr9hGOSVrj1iXzhR-1" value="VOTER&amp;nbsp;&lt;div&gt;REGISTRATION&lt;/div&gt;" style="rounded=0;whiteSpace=wrap;html=1;" vertex="1" parent="WIyWlLk6GJQsqaUBKTNV-1">
          <mxGeometry x="40" y="240" width="120" height="60" as="geometry" />
        </mxCell>
        <mxCell id="0WxiCr9hGOSVrj1iXzhR-16" value="" style="edgeStyle=orthogonalEdgeStyle;rounded=0;orthogonalLoop=1;jettySize=auto;html=1;" edge="1" parent="WIyWlLk6GJQsqaUBKTNV-1" source="0WxiCr9hGOSVrj1iXzhR-2" target="0WxiCr9hGOSVrj1iXzhR-3">
          <mxGeometry relative="1" as="geometry">
            <Array as="points">
              <mxPoint x="220" y="390" />
              <mxPoint x="220" y="390" />
            </Array>
          </mxGeometry>
        </mxCell>
        <mxCell id="0WxiCr9hGOSVrj1iXzhR-2" value="CANDIDATE&amp;nbsp;&lt;div&gt;REGISTRATION&lt;/div&gt;" style="rounded=0;whiteSpace=wrap;html=1;" vertex="1" parent="WIyWlLk6GJQsqaUBKTNV-1">
          <mxGeometry x="40" y="360" width="120" height="60" as="geometry" />
        </mxCell>
        <mxCell id="0WxiCr9hGOSVrj1iXzhR-18" value="" style="edgeStyle=orthogonalEdgeStyle;rounded=0;orthogonalLoop=1;jettySize=auto;html=1;" edge="1" parent="WIyWlLk6GJQsqaUBKTNV-1" source="0WxiCr9hGOSVrj1iXzhR-3" target="0WxiCr9hGOSVrj1iXzhR-17">
          <mxGeometry relative="1" as="geometry">
            <Array as="points">
              <mxPoint x="440" y="165" />
              <mxPoint x="440" y="165" />
            </Array>
          </mxGeometry>
        </mxCell>
        <mxCell id="0WxiCr9hGOSVrj1iXzhR-3" value="AUTHENTICATION&lt;div&gt;INTERFACE&lt;/div&gt;" style="rounded=0;whiteSpace=wrap;html=1;" vertex="1" parent="WIyWlLk6GJQsqaUBKTNV-1">
          <mxGeometry x="240" y="40" width="120" height="400" as="geometry" />
        </mxCell>
        <mxCell id="0WxiCr9hGOSVrj1iXzhR-20" value="" style="edgeStyle=orthogonalEdgeStyle;rounded=0;orthogonalLoop=1;jettySize=auto;html=1;" edge="1" parent="WIyWlLk6GJQsqaUBKTNV-1" source="0WxiCr9hGOSVrj1iXzhR-17" target="0WxiCr9hGOSVrj1iXzhR-19">
          <mxGeometry relative="1" as="geometry">
            <Array as="points">
              <mxPoint x="530" y="281" />
            </Array>
          </mxGeometry>
        </mxCell>
        <mxCell id="0WxiCr9hGOSVrj1iXzhR-17" value="D APP&lt;div&gt;BLOCKCHAIN&lt;/div&gt;&lt;div&gt;TRANSACTION&lt;/div&gt;" style="rhombus;whiteSpace=wrap;html=1;rounded=0;" vertex="1" parent="WIyWlLk6GJQsqaUBKTNV-1">
          <mxGeometry x="490" y="111" width="140" height="110" as="geometry" />
        </mxCell>
        <mxCell id="0WxiCr9hGOSVrj1iXzhR-22" value="" style="edgeStyle=orthogonalEdgeStyle;rounded=0;orthogonalLoop=1;jettySize=auto;html=1;" edge="1" parent="WIyWlLk6GJQsqaUBKTNV-1" source="0WxiCr9hGOSVrj1iXzhR-19" target="0WxiCr9hGOSVrj1iXzhR-21">
          <mxGeometry relative="1" as="geometry" />
        </mxCell>
        <mxCell id="0WxiCr9hGOSVrj1iXzhR-19" value="&lt;div&gt;&lt;span style=&quot;background-color: initial;&quot;&gt;INSTRUCTIONS&lt;/span&gt;&lt;/div&gt;&lt;div&gt;&lt;span style=&quot;background-color: initial;&quot;&gt;(PHASE 1)&lt;/span&gt;&lt;/div&gt;" style="whiteSpace=wrap;html=1;rounded=0;" vertex="1" parent="WIyWlLk6GJQsqaUBKTNV-1">
          <mxGeometry x="500" y="241" width="120" height="60" as="geometry" />
        </mxCell>
        <mxCell id="0WxiCr9hGOSVrj1iXzhR-24" value="" style="edgeStyle=orthogonalEdgeStyle;rounded=0;orthogonalLoop=1;jettySize=auto;html=1;" edge="1" parent="WIyWlLk6GJQsqaUBKTNV-1" source="0WxiCr9hGOSVrj1iXzhR-21" target="0WxiCr9hGOSVrj1iXzhR-23">
          <mxGeometry relative="1" as="geometry" />
        </mxCell>
        <mxCell id="0WxiCr9hGOSVrj1iXzhR-26" value="" style="edgeStyle=orthogonalEdgeStyle;rounded=0;orthogonalLoop=1;jettySize=auto;html=1;" edge="1" parent="WIyWlLk6GJQsqaUBKTNV-1" source="0WxiCr9hGOSVrj1iXzhR-21" target="0WxiCr9hGOSVrj1iXzhR-25">
          <mxGeometry relative="1" as="geometry" />
        </mxCell>
        <mxCell id="0WxiCr9hGOSVrj1iXzhR-21" value="&lt;div&gt;&lt;br&gt;&lt;/div&gt;VOTING&lt;div&gt;(PHASE 2)&lt;div&gt;&lt;br&gt;&lt;/div&gt;&lt;/div&gt;" style="whiteSpace=wrap;html=1;rounded=0;" vertex="1" parent="WIyWlLk6GJQsqaUBKTNV-1">
          <mxGeometry x="500" y="361" width="120" height="60" as="geometry" />
        </mxCell>
        <mxCell id="0WxiCr9hGOSVrj1iXzhR-23" value="&lt;div&gt;&lt;br&gt;&lt;/div&gt;RESULTS&lt;div&gt;(PHASE 3)&lt;div&gt;&lt;br&gt;&lt;/div&gt;&lt;/div&gt;" style="whiteSpace=wrap;html=1;rounded=0;" vertex="1" parent="WIyWlLk6GJQsqaUBKTNV-1">
          <mxGeometry x="500" y="601" width="120" height="60" as="geometry" />
        </mxCell>
        <mxCell id="0WxiCr9hGOSVrj1iXzhR-28" value="" style="edgeStyle=orthogonalEdgeStyle;rounded=0;orthogonalLoop=1;jettySize=auto;html=1;" edge="1" parent="WIyWlLk6GJQsqaUBKTNV-1" source="0WxiCr9hGOSVrj1iXzhR-25" target="0WxiCr9hGOSVrj1iXzhR-27">
          <mxGeometry relative="1" as="geometry" />
        </mxCell>
        <mxCell id="0WxiCr9hGOSVrj1iXzhR-25" value="&lt;div&gt;VERIFICATION&lt;/div&gt;&lt;div&gt;CODE (OTP)&lt;/div&gt;" style="whiteSpace=wrap;html=1;rounded=0;" vertex="1" parent="WIyWlLk6GJQsqaUBKTNV-1">
          <mxGeometry x="680" y="361" width="120" height="60" as="geometry" />
        </mxCell>
        <mxCell id="0WxiCr9hGOSVrj1iXzhR-30" value="" style="edgeStyle=orthogonalEdgeStyle;rounded=0;orthogonalLoop=1;jettySize=auto;html=1;" edge="1" parent="WIyWlLk6GJQsqaUBKTNV-1" source="0WxiCr9hGOSVrj1iXzhR-27" target="0WxiCr9hGOSVrj1iXzhR-29">
          <mxGeometry relative="1" as="geometry" />
        </mxCell>
        <mxCell id="0WxiCr9hGOSVrj1iXzhR-27" value="METAMASK&lt;div&gt;WALLET&lt;/div&gt;" style="whiteSpace=wrap;html=1;rounded=0;" vertex="1" parent="WIyWlLk6GJQsqaUBKTNV-1">
          <mxGeometry x="680" y="441" width="120" height="60" as="geometry" />
        </mxCell>
        <mxCell id="0WxiCr9hGOSVrj1iXzhR-29" value="SMART CONTRACTS" style="whiteSpace=wrap;html=1;rounded=0;" vertex="1" parent="WIyWlLk6GJQsqaUBKTNV-1">
          <mxGeometry x="680" y="521" width="120" height="60" as="geometry" />
        </mxCell>
        <mxCell id="0WxiCr9hGOSVrj1iXzhR-39" value="" style="edgeStyle=orthogonalEdgeStyle;rounded=0;orthogonalLoop=1;jettySize=auto;html=1;" edge="1" parent="WIyWlLk6GJQsqaUBKTNV-1" source="0WxiCr9hGOSVrj1iXzhR-32" target="0WxiCr9hGOSVrj1iXzhR-38">
          <mxGeometry relative="1" as="geometry" />
        </mxCell>
        <mxCell id="0WxiCr9hGOSVrj1iXzhR-32" value="ADD CANDIDATE" style="rounded=0;whiteSpace=wrap;html=1;" vertex="1" parent="WIyWlLk6GJQsqaUBKTNV-1">
          <mxGeometry x="50" y="120" width="100" height="30" as="geometry" />
        </mxCell>
        <mxCell id="0WxiCr9hGOSVrj1iXzhR-38" value="CHANGE PHASE" style="rounded=0;whiteSpace=wrap;html=1;" vertex="1" parent="WIyWlLk6GJQsqaUBKTNV-1">
          <mxGeometry x="50" y="170" width="100" height="29" as="geometry" />
        </mxCell>
      </root>
    </mxGraphModel>
  </diagram>
</mxfile>
